
<svg xmlns="http://www.w3.org/2000/svg" xmlns:xlink="http://www.w3.org/1999/xlink" viewBox="0 0 113.39 113.39"><defs><style>.cls-1{fill:url(#未命名的渐变_17);}.cls-2{fill:url(#未命名的渐变_17-2);}.cls-3{fill:#0058ff;}</style><linearGradient id="未命名的渐变_17" x1="113.39" y1="81.63" x2="11.56" y2="81.63" gradientTransform="translate(0 113.39) rotate(-90)" gradientUnits="userSpaceOnUse"><stop offset="0" stop-color="#00c3ff"/><stop offset="0.01" stop-color="#00c0ff"/><stop offset="0.12" stop-color="#00a0ff"/><stop offset="0.24" stop-color="#0086ff"/><stop offset="0.37" stop-color="#0071ff"/><stop offset="0.52" stop-color="#0063ff"/><stop offset="0.7" stop-color="#005bff"/><stop offset="1" stop-color="#0058ff"/></linearGradient><linearGradient id="未命名的渐变_17-2" x1="0" y1="31.75" x2="101.83" y2="31.75" xlink:href="#未命名的渐变_17"/></defs><g id="图层_2" data-name="图层 2"><g id="图层_1-2" data-name="图层 1"><path class="cls-1" d="M49.88.43v44.8a13.32,13.32,0,0,1,13.63-.07v-31A43.24,43.24,0,0,1,99.75,56.86V57c.21,8.83-3.15,18.26-8.82,25.79a15.47,15.47,0,0,0-.17,18.66l.28.37c13.92-10.47,22.67-28.15,22.34-45A56.78,56.78,0,0,0,56.8,0,58.44,58.44,0,0,0,49.88.43Z"/><path class="cls-2" d="M0,56.6A56.46,56.46,0,0,0,63.51,113V68.25a13.32,13.32,0,0,1-13.63-.07V99.24A43.21,43.21,0,0,1,13.64,56.53v-.15c-.2-8.83,3.15-18.27,8.82-25.79a15.47,15.47,0,0,0,.18-18.66l-.28-.37C8.42,22-.33,39.71,0,56.6Z"/><ellipse class="cls-3" cx="56.75" cy="56.7" rx="4.84" ry="4.83"/></g></g></svg>